<?xml version="1.0" encoding="UTF-8" standalone="no"?><svg xmlns="http://www.w3.org/2000/svg" xmlns:xlink="http://www.w3.org/1999/xlink" contentStyleType="text/css" height="746px" preserveAspectRatio="none" style="width:438px;height:746px;background:#FFFFFF;" version="1.1" viewBox="0 0 438 746" width="438px" zoomAndPan="magnify"><defs/><g><!--entity Client--><g id="elem_Client"><ellipse cx="27.5" cy="347" fill="#F1F1F1" rx="8" ry="8" style="stroke:#181818;stroke-width:0.5;"/><path d="M27.5,355 L27.5,382 M14.5,363 L40.5,363 M27.5,382 L14.5,397 M27.5,382 L40.5,397 " fill="none" style="stroke:#181818;stroke-width:0.5;"/><text fill="#000000" font-family="sans-serif" font-size="14" lengthAdjust="spacing" textLength="43" x="6" y="411.4951">Client</text></g><g id="elem_Consulter la température du fût de bière"><ellipse cx="270.8656" cy="40.4731" fill="#F1F1F1" rx="160.3656" ry="34.4731" style="stroke:#181818;stroke-width:0.5;"/><text fill="#000000" font-family="sans-serif" font-size="14" lengthAdjust="spacing" textLength="292" x="124.8656" y="43.3198">Consulter la température du fût de bière</text></g><g id="elem_Consulter le niveau du fût de bière"><ellipse cx="270.7809" cy="140.5562" fill="#F1F1F1" rx="138.2809" ry="30.0562" style="stroke:#181818;stroke-width:0.5;"/><text fill="#000000" font-family="sans-serif" font-size="14" lengthAdjust="spacing" textLength="246" x="147.7809" y="143.4029">Consulter le niveau du fût de bière</text></g><g id="elem_Consulter la puissance consommée"><ellipse cx="271.1669" cy="236.5334" fill="#F1F1F1" rx="140.6669" ry="30.5334" style="stroke:#181818;stroke-width:0.5;"/><text fill="#000000" font-family="sans-serif" font-size="14" lengthAdjust="spacing" textLength="251" x="145.6669" y="239.3801">Consulter la puissance consommée</text></g><g id="elem_Consulter la quantité de CO2"><ellipse cx="270.8973" cy="328.6795" fill="#F1F1F1" rx="118.8973" ry="26.1795" style="stroke:#181818;stroke-width:0.5;"/><text fill="#000000" font-family="sans-serif" font-size="14" lengthAdjust="spacing" textLength="205" x="168.3973" y="331.5261">Consulter la quantité de CO2</text></g><g id="elem_Consulter les alertes liées à une anomalie"><ellipse cx="270.8149" cy="424.263" fill="#F1F1F1" rx="161.8149" ry="34.763" style="stroke:#181818;stroke-width:0.5;"/><text fill="#000000" font-family="sans-serif" font-size="14" lengthAdjust="spacing" textLength="295" x="123.3149" y="427.1097">Consulter les alertes liées à une anomalie</text></g><g id="elem_Accéder à la notice d'utilisation"><ellipse cx="270.8083" cy="522.5617" fill="#F1F1F1" rx="128.3083" ry="28.0617" style="stroke:#181818;stroke-width:0.5;"/><text fill="#000000" font-family="sans-serif" font-size="14" lengthAdjust="spacing" textLength="225" x="158.3083" y="525.4083">Accéder à la notice d'utilisation</text></g><g id="elem_Accéder au manuel de service"><ellipse cx="271.1802" cy="612.336" fill="#F1F1F1" rx="122.1802" ry="26.836" style="stroke:#181818;stroke-width:0.5;"/><text fill="#000000" font-family="sans-serif" font-size="14" lengthAdjust="spacing" textLength="212" x="165.1802" y="615.1827">Accéder au manuel de service</text></g><g id="elem_Consulter les gammes de maintenance"><ellipse cx="271.1152" cy="707.623" fill="#F1F1F1" rx="153.6152" ry="33.123" style="stroke:#181818;stroke-width:0.5;"/><text fill="#000000" font-family="sans-serif" font-size="14" lengthAdjust="spacing" textLength="278" x="132.1152" y="710.4697">Consulter les gammes de maintenance</text></g><!--link Client to Consulter la température du fût de bière--><g id="link_Client_Consulter la température du fût de bière"><path d="M28.4704,338.34 C30.5224,278.03 43.3622,160.558 109,92.5 C119.625,81.483 132.596,72.796 146.517,65.948 " fill="none" id="Client-to-Consulter la température du fût de bière" style="stroke:#181818;stroke-width:1.0;"/><polygon fill="#181818" points="151.272,63.695,141.4261,63.9347,146.7537,65.8363,144.8521,71.1639,151.272,63.695" style="stroke:#181818;stroke-width:1.0;"/></g><!--link Client to Consulter le niveau du fût de bière--><g id="link_Client_Consulter le niveau du fût de bière"><path d="M34.874,338.437 C43.966,295.935 64.7364,227.952 109,188.5 C122.534,176.437 138.987,167.403 156.143,160.637 " fill="none" id="Client-to-Consulter le niveau du fût de bière" style="stroke:#181818;stroke-width:1.0;"/><polygon fill="#181818" points="160.999,158.788,151.1647,158.2521,156.3262,160.5671,154.0113,165.7286,160.999,158.788" style="stroke:#181818;stroke-width:1.0;"/></g><!--link Client to Consulter la puissance consommée--><g id="link_Client_Consulter la puissance consommée"><path d="M49.2937,344.646 C63.8235,324.72 84.8915,299.982 109,284.5 C125.516,273.894 144.475,265.547 163.45,259.004 " fill="none" id="Client-to-Consulter la puissance consommée" style="stroke:#181818;stroke-width:1.0;"/><polygon fill="#181818" points="168.274,257.379,158.4681,256.4604,163.5355,258.9747,161.0212,264.0421,168.274,257.379" style="stroke:#181818;stroke-width:1.0;"/></g><!--link Client to Consulter la quantité de CO2--><g id="link_Client_Consulter la quantité de CO2"><path d="M49.0902,372.408 C77.4294,366.775 130.282,356.27 177.185,346.948 " fill="none" id="Client-to-Consulter la quantité de CO2" style="stroke:#181818;stroke-width:1.0;"/><polygon fill="#181818" points="182.287,345.934,172.6801,343.7643,177.3828,346.9083,174.2389,351.611,182.287,345.934" style="stroke:#181818;stroke-width:1.0;"/></g><!--link Client to Consulter les alertes liées à une anomalie--><g id="link_Client_Consulter les alertes liées à une anomalie"><path d="M49.0902,380.592 C71.2505,384.997 108.4,392.381 145.973,399.849 " fill="none" id="Client-to-Consulter les alertes liées à une anomalie" style="stroke:#181818;stroke-width:1.0;"/><polygon fill="#181818" points="151.035,400.855,142.9872,395.1776,146.1309,399.8805,141.428,403.0241,151.035,400.855" style="stroke:#181818;stroke-width:1.0;"/></g><!--link Client to Accéder à la notice d'utilisation--><g id="link_Client_Accéder à la notice d'utilisation"><path d="M49.2852,412.225 C63.5346,433.764 84.2977,460.115 109,476.5 C126.269,487.954 146.404,496.596 166.471,503.104 " fill="none" id="Client-to-Accéder à la notice d'utilisation" style="stroke:#181818;stroke-width:1.0;"/><polygon fill="#181818" points="171.294,504.628,163.9184,498.1011,166.5266,503.1208,161.5069,505.7289,171.294,504.628" style="stroke:#181818;stroke-width:1.0;"/></g><!--link Client to Accéder au manuel de service--><g id="link_Client_Accéder au manuel de service"><path d="M34.417,414.525 C43.1462,457.768 63.6395,527.536 109,567.5 C124.056,580.765 142.724,590.148 161.954,596.777 " fill="none" id="Client-to-Accéder au manuel de service" style="stroke:#181818;stroke-width:1.0;"/><polygon fill="#181818" points="166.853,598.403,159.572,591.7708,162.1077,596.8274,157.0511,599.3632,166.853,598.403" style="stroke:#181818;stroke-width:1.0;"/></g><!--link Client to Consulter les gammes de maintenance--><g id="link_Client_Consulter les gammes de maintenance"><path d="M28.6153,414.662 C30.8959,474.341 44.0797,589.815 109,656.5 C120.306,668.1139 134.237,677.0901 149.132,684.0262 " fill="none" id="Client-to-Consulter les gammes de maintenance" style="stroke:#181818;stroke-width:1.0;"/><polygon fill="#181818" points="153.784,686.114,147.2107,678.7797,149.2223,684.0668,143.9352,686.0784,153.784,686.114" style="stroke:#181818;stroke-width:1.0;"/></g><!--SRC=[bT2nRGCn30NGtbFyBd7X9gKB0y4Da1aO7UqGa2X78ZsFozmCARMOUMq07v2AWC0dVZBpsM0LJIvVXbaQ9vEgkzrnoi9gHnmE9xnELRjduuPCC2xNiJGoRupPSHw_GHcVCduQxvzJXigDoV-525UNtaaJ8yLpBMKis-3RIKriBEk0wUDjAr87PMuMDKlysp7kS6MGraA1_jhtbCOo1us-6ANL98BDBswIfTDwlASaDY-apddDrRdTWcvdkr0fKQAzaAYnhcVOFm00]--></g></svg>