<?xml version="1.0" encoding="UTF-8" standalone="no"?><svg xmlns="http://www.w3.org/2000/svg" xmlns:xlink="http://www.w3.org/1999/xlink" contentStyleType="text/css" height="739px" preserveAspectRatio="none" style="width:438px;height:739px;background:#FFFFFF;" version="1.1" viewBox="0 0 438 739" width="438px" zoomAndPan="magnify"><defs/><g><!--entity Client--><g id="elem_Client"><ellipse cx="27.5" cy="339.5" fill="#F1F1F1" rx="8" ry="8" style="stroke:#181818;stroke-width:0.5;"/><path d="M27.5,347.5 L27.5,374.5 M14.5,355.5 L40.5,355.5 M27.5,374.5 L14.5,389.5 M27.5,374.5 L40.5,389.5 " fill="none" style="stroke:#181818;stroke-width:0.5;"/><text fill="#000000" font-family="sans-serif" font-size="14" lengthAdjust="spacing" textLength="43" x="6" y="403.9951">Client</text></g><g id="elem_Consulter la température ambiante"><ellipse cx="271.0786" cy="36.9157" fill="#F1F1F1" rx="142.5786" ry="30.9157" style="stroke:#181818;stroke-width:0.5;"/><text fill="#000000" font-family="sans-serif" font-size="14" lengthAdjust="spacing" textLength="255" x="143.5786" y="39.7624">Consulter la température ambiante</text></g><g id="elem_Consulter le niveau du fût de bière"><ellipse cx="270.7809" cy="133.0562" fill="#F1F1F1" rx="138.2809" ry="30.0562" style="stroke:#181818;stroke-width:0.5;"/><text fill="#000000" font-family="sans-serif" font-size="14" lengthAdjust="spacing" textLength="246" x="147.7809" y="135.9029">Consulter le niveau du fût de bière</text></g><g id="elem_Consulter la puissance consommée"><ellipse cx="271.1669" cy="229.0334" fill="#F1F1F1" rx="140.6669" ry="30.5334" style="stroke:#181818;stroke-width:0.5;"/><text fill="#000000" font-family="sans-serif" font-size="14" lengthAdjust="spacing" textLength="251" x="145.6669" y="231.8801">Consulter la puissance consommée</text></g><g id="elem_Consulter la quantité de CO2"><ellipse cx="270.8973" cy="321.1795" fill="#F1F1F1" rx="118.8973" ry="26.1795" style="stroke:#181818;stroke-width:0.5;"/><text fill="#000000" font-family="sans-serif" font-size="14" lengthAdjust="spacing" textLength="205" x="168.3973" y="324.0261">Consulter la quantité de CO2</text></g><g id="elem_Consulter les alertes liées à une anomalie"><ellipse cx="270.8149" cy="416.763" fill="#F1F1F1" rx="161.8149" ry="34.763" style="stroke:#181818;stroke-width:0.5;"/><text fill="#000000" font-family="sans-serif" font-size="14" lengthAdjust="spacing" textLength="295" x="123.3149" y="419.6097">Consulter les alertes liées à une anomalie</text></g><g id="elem_Accéder à la notice d'utilisation"><ellipse cx="270.8083" cy="515.0617" fill="#F1F1F1" rx="128.3083" ry="28.0617" style="stroke:#181818;stroke-width:0.5;"/><text fill="#000000" font-family="sans-serif" font-size="14" lengthAdjust="spacing" textLength="225" x="158.3083" y="517.9083">Accéder à la notice d'utilisation</text></g><g id="elem_Accéder au manuel de service"><ellipse cx="271.1802" cy="604.836" fill="#F1F1F1" rx="122.1802" ry="26.836" style="stroke:#181818;stroke-width:0.5;"/><text fill="#000000" font-family="sans-serif" font-size="14" lengthAdjust="spacing" textLength="212" x="165.1802" y="607.6827">Accéder au manuel de service</text></g><g id="elem_Consulter les gammes de maintenance"><ellipse cx="271.1152" cy="700.123" fill="#F1F1F1" rx="153.6152" ry="33.123" style="stroke:#181818;stroke-width:0.5;"/><text fill="#000000" font-family="sans-serif" font-size="14" lengthAdjust="spacing" textLength="278" x="132.1152" y="702.9697">Consulter les gammes de maintenance</text></g><!--link Client to Consulter la température ambiante--><g id="link_Client_Consulter la température ambiante"><path d="M28.2909,330.665 C30.0941,270.112 42.5954,152.31 109,85 C120.695,73.145 135.182,64.191 150.633,57.433 " fill="none" id="Client-to-Consulter la température ambiante" style="stroke:#181818;stroke-width:1.0;"/><polygon fill="#181818" points="155.457,55.405,145.6102,55.2039,150.8474,57.342,148.7093,62.5792,155.457,55.405" style="stroke:#181818;stroke-width:1.0;"/></g><!--link Client to Consulter le niveau du fût de bière--><g id="link_Client_Consulter le niveau du fût de bière"><path d="M34.874,330.937 C43.966,288.435 64.7364,220.452 109,181 C122.534,168.937 138.987,159.903 156.143,153.137 " fill="none" id="Client-to-Consulter le niveau du fût de bière" style="stroke:#181818;stroke-width:1.0;"/><polygon fill="#181818" points="160.999,151.288,151.1647,150.7521,156.3262,153.0671,154.0113,158.2286,160.999,151.288" style="stroke:#181818;stroke-width:1.0;"/></g><!--link Client to Consulter la puissance consommée--><g id="link_Client_Consulter la puissance consommée"><path d="M49.2937,337.146 C63.8235,317.22 84.8915,292.482 109,277 C125.516,266.394 144.475,258.047 163.45,251.504 " fill="none" id="Client-to-Consulter la puissance consommée" style="stroke:#181818;stroke-width:1.0;"/><polygon fill="#181818" points="168.274,249.879,158.4681,248.9604,163.5355,251.4747,161.0212,256.5421,168.274,249.879" style="stroke:#181818;stroke-width:1.0;"/></g><!--link Client to Consulter la quantité de CO2--><g id="link_Client_Consulter la quantité de CO2"><path d="M49.0902,364.908 C77.4294,359.275 130.282,348.77 177.185,339.448 " fill="none" id="Client-to-Consulter la quantité de CO2" style="stroke:#181818;stroke-width:1.0;"/><polygon fill="#181818" points="182.287,338.434,172.6801,336.2643,177.3828,339.4083,174.2389,344.111,182.287,338.434" style="stroke:#181818;stroke-width:1.0;"/></g><!--link Client to Consulter les alertes liées à une anomalie--><g id="link_Client_Consulter les alertes liées à une anomalie"><path d="M49.0902,373.092 C71.2505,377.497 108.4,384.881 145.973,392.349 " fill="none" id="Client-to-Consulter les alertes liées à une anomalie" style="stroke:#181818;stroke-width:1.0;"/><polygon fill="#181818" points="151.035,393.355,142.9872,387.6776,146.1309,392.3805,141.428,395.5241,151.035,393.355" style="stroke:#181818;stroke-width:1.0;"/></g><!--link Client to Accéder à la notice d'utilisation--><g id="link_Client_Accéder à la notice d'utilisation"><path d="M49.2852,404.725 C63.5346,426.264 84.2977,452.615 109,469 C126.269,480.454 146.404,489.096 166.471,495.604 " fill="none" id="Client-to-Accéder à la notice d'utilisation" style="stroke:#181818;stroke-width:1.0;"/><polygon fill="#181818" points="171.294,497.128,163.9184,490.6011,166.5266,495.6208,161.5069,498.2289,171.294,497.128" style="stroke:#181818;stroke-width:1.0;"/></g><!--link Client to Accéder au manuel de service--><g id="link_Client_Accéder au manuel de service"><path d="M34.417,407.025 C43.1462,450.268 63.6395,520.036 109,560 C124.056,573.265 142.724,582.648 161.954,589.277 " fill="none" id="Client-to-Accéder au manuel de service" style="stroke:#181818;stroke-width:1.0;"/><polygon fill="#181818" points="166.853,590.903,159.572,584.2708,162.1077,589.3274,157.0511,591.8632,166.853,590.903" style="stroke:#181818;stroke-width:1.0;"/></g><!--link Client to Consulter les gammes de maintenance--><g id="link_Client_Consulter les gammes de maintenance"><path d="M28.6153,407.162 C30.8959,466.841 44.0797,582.315 109,649 C120.306,660.6139 134.237,669.5901 149.132,676.5262 " fill="none" id="Client-to-Consulter les gammes de maintenance" style="stroke:#181818;stroke-width:1.0;"/><polygon fill="#181818" points="153.784,678.614,147.2107,671.2797,149.2223,676.5668,143.9352,678.5784,153.784,678.614" style="stroke:#181818;stroke-width:1.0;"/></g><!--SRC=[VP0nRiCm34Ntd89RwY5BnWm12X-WPs1anYKWKgb4-ZmPwpDqrCL2hmNYYO30f__uCzqDh43b-TjWuah9kEZXS1apaze5JgShV8n5csUZ2Xd1I1vzhMXU2L1kZ6eql2S8b1T2XydXtlyYXk36_RVkGGWFvzPG4q6AvoBIrttWnqE4hQzRmFXrtbDgW9cgnSmS_pReJt2DSxG81lIV_KofhrEWiHTHMen3R3gwSUQ6MsTlaRXSK9tovjMeBe7kkyqe4YFM1JdArQs6uGK0]--></g></svg>